<svg width="5477" height="1746" viewBox="0 0 5477 1746" fill="none" xmlns="http://www.w3.org/2000/svg">
<path d="M0 811.332C0 713.412 19.817 627.733 59.451 554.293C99.0851 479.688 153.29 421.986 222.067 381.186C292.009 340.386 369.529 319.986 454.625 319.986C538.556 319.986 611.413 338.055 673.196 374.192C690.294 384.192 706.186 394.907 720.874 406.337C750.119 429.094 811.332 408.659 811.332 371.602V371.602C811.332 351.787 827.395 335.723 847.21 335.723H891.765C936.188 335.723 972.199 371.735 972.199 416.157V1213.5C972.199 1257.92 936.188 1293.93 891.765 1293.93H848.354C827.907 1293.93 811.332 1277.36 811.332 1256.91V1256.91C811.332 1218.81 749.209 1198.05 719.279 1221.62C704.008 1233.65 687.481 1244.93 669.698 1255.47C607.916 1291.6 535.642 1309.67 452.877 1309.67C367.78 1309.67 290.844 1288.69 222.067 1246.72C153.29 1204.76 99.0851 1145.89 59.451 1070.12C19.817 994.347 0 908.085 0 811.332ZM811.332 813.08C811.332 740.806 796.76 677.858 767.618 624.236C738.475 570.613 698.841 529.813 648.716 501.837C599.756 472.694 545.551 458.123 486.1 458.123C426.649 458.123 372.443 472.111 323.484 500.088C274.524 528.065 235.473 568.865 206.33 622.487C177.187 676.11 162.616 739.058 162.616 811.332C162.616 884.771 177.187 948.885 206.33 1003.67C235.473 1057.3 274.524 1098.68 323.484 1127.82C372.443 1155.8 426.649 1169.79 486.1 1169.79C545.551 1169.79 599.756 1155.8 648.716 1127.82C698.841 1098.68 738.475 1057.3 767.618 1003.67C796.76 948.885 811.332 885.354 811.332 813.08Z" fill="#15509E"/>
<path d="M1580.32 1309.67C1506.88 1309.67 1441.01 1297.43 1382.73 1272.95C1324.44 1247.31 1278.4 1212.33 1244.59 1168.04C1228.52 1146.43 1215.88 1123.37 1206.66 1098.86C1189.73 1053.87 1229.2 1012.42 1277.27 1012.42V1012.42C1320.24 1012.42 1353.86 1047.23 1376.73 1083.6C1387.46 1100.68 1401.7 1116 1419.45 1129.57C1460.25 1159.88 1513.29 1175.03 1578.57 1175.03C1639.18 1175.03 1686.98 1161.63 1721.95 1134.82C1756.92 1108 1774.41 1074.2 1774.41 1033.4C1774.41 991.433 1755.75 960.542 1718.45 940.725C1681.15 919.742 1623.45 899.342 1545.34 879.525C1474.24 860.874 1415.95 842.223 1370.49 823.572C1326.19 803.755 1287.72 775.195 1255.08 737.892C1223.61 699.424 1207.87 649.298 1207.87 587.516C1207.87 538.556 1222.44 493.677 1251.59 452.877C1280.73 412.077 1322.11 380.02 1375.73 356.706C1429.36 332.226 1490.56 319.986 1559.33 319.986C1665.41 319.986 1751.09 346.798 1816.37 400.42C1860.88 436.98 1891.3 482.751 1907.63 537.734C1920.69 581.704 1882.84 620.739 1836.97 620.739V620.739C1794.84 620.739 1762.35 586.262 1742.27 549.223C1732.21 530.669 1718.45 514.291 1700.97 500.088C1664.83 469.78 1615.87 454.625 1554.09 454.625C1496.97 454.625 1451.5 466.865 1417.7 491.345C1383.89 515.825 1366.99 547.882 1366.99 587.516C1366.99 618.99 1376.9 645.218 1396.72 666.201C1417.7 686.018 1443.34 702.338 1473.65 715.161C1505.13 726.818 1548.26 740.224 1603.05 755.378C1671.82 774.029 1727.78 792.68 1770.91 811.332C1814.04 828.817 1850.76 855.628 1881.07 891.765C1912.54 927.902 1928.86 975.113 1930.03 1033.4C1930.03 1085.86 1915.46 1133.07 1886.31 1175.03C1857.17 1217 1815.79 1250.22 1762.17 1274.7C1709.71 1298.01 1649.09 1309.67 1580.32 1309.67Z" fill="#15509E"/>
<path d="M2630.26 318.238C2702.53 318.238 2767.81 333.975 2826.1 365.449C2884.38 395.757 2929.84 441.803 2962.48 503.585C2996.29 565.368 3013.19 640.556 3013.19 729.149V1215.25C3013.19 1258.71 2977.96 1293.93 2934.51 1293.93V1293.93C2891.05 1293.93 2855.82 1258.71 2855.82 1215.25V751.881C2855.82 656.293 2831.92 583.436 2784.13 533.311C2736.34 482.02 2671.06 456.374 2588.29 456.374C2504.36 456.374 2437.33 482.602 2387.21 535.059C2338.25 587.516 2313.77 663.87 2313.77 764.12V1214.37C2313.77 1258.31 2278.15 1293.93 2234.21 1293.93V1293.93C2190.27 1293.93 2154.65 1258.31 2154.65 1214.37V79.5596C2154.65 35.6201 2190.27 0 2234.21 0V0C2278.15 0 2313.77 35.62 2313.77 79.5596V297.683C2313.77 348.813 2397.24 380.929 2443.16 358.455V358.455C2499.12 331.643 2561.48 318.238 2630.26 318.238Z" fill="#15509E"/>
<path d="M3985.98 335.723C4039.64 335.723 4076.15 390.135 4055.83 439.788L3540.75 1697.81C3529.05 1726.39 3501.23 1745.06 3470.35 1745.06V1745.06C3416.28 1745.06 3379.47 1690.23 3399.95 1640.19L3529.66 1323.1C3540.06 1297.68 3540.08 1269.2 3529.71 1243.77L3205.11 447.697C3183.31 394.234 3222.64 335.723 3280.38 335.723V335.723C3313.94 335.723 3344.05 356.35 3356.17 387.645L3538.41 858.069C3573.1 947.611 3699.88 947.363 3734.22 857.685L3915.5 384.207C3926.68 355.006 3954.72 335.723 3985.98 335.723V335.723Z" fill="#15509E"/>
<path d="M5413.64 918.006C5443.51 918.006 5467.95 893.754 5465.55 863.983C5457.56 764.676 5427.6 668.142 5377.57 581.468C5318.5 479.144 5233.55 394.166 5131.25 335.071C5028.94 275.976 4912.88 244.847 4794.74 244.811C4676.59 244.774 4560.51 275.832 4458.17 334.863C4355.83 393.894 4270.82 478.82 4211.7 581.108C4152.57 683.396 4121.41 799.443 4121.33 917.59C4121.26 1035.74 4152.28 1151.82 4211.28 1254.18C4261.26 1340.89 4329.82 1415.16 4411.77 1471.8C4436.34 1488.79 4469.57 1479.77 4484.53 1453.92V1453.92C4499.48 1428.07 4490.47 1395.19 4466.16 1377.83C4400.51 1330.95 4345.48 1270.42 4304.99 1200.17C4255.47 1114.26 4229.43 1016.82 4229.49 917.657C4229.55 818.492 4255.71 721.09 4305.34 635.236C4354.96 549.383 4426.31 478.102 4512.21 428.555C4598.11 379.008 4695.54 352.94 4794.7 352.971C4893.87 353.001 4991.28 379.129 5077.15 428.729C5163.01 478.329 5234.32 549.655 5283.89 635.539C5324.43 705.767 5349.27 783.707 5356.98 864.007C5359.83 893.738 5383.78 918.006 5413.64 918.006V918.006Z" fill="#E81504"/>
<path d="M4408.25 1147.18C4389.62 1159.08 4384.04 1183.95 4397.39 1201.57C4441.95 1260.34 4499.1 1308.63 4564.85 1342.77C4642.46 1383.08 4729.32 1402.25 4816.7 1398.36C4904.07 1394.46 4988.88 1367.64 5062.6 1320.59C5136.33 1273.54 5196.37 1207.92 5236.71 1130.32C5277.04 1052.71 5296.23 965.858 5292.37 878.484C5288.5 791.11 5261.71 706.292 5214.68 632.552C5167.66 558.812 5102.05 498.747 5024.46 458.391C4958.73 424.208 4886.37 405.187 4812.67 402.501C4790.57 401.695 4773.43 420.556 4774.4 442.645V442.645C4775.37 464.733 4794.1 481.653 4816.18 482.798C4875.81 485.89 4934.26 501.728 4987.51 529.425C5052.64 563.297 5107.71 613.711 5147.18 675.604C5186.65 737.496 5209.14 808.687 5212.38 882.023C5215.62 955.359 5199.51 1028.26 5165.66 1093.39C5131.81 1158.53 5081.41 1213.61 5019.53 1253.1C4957.65 1292.59 4886.47 1315.1 4813.13 1318.37C4739.8 1321.63 4666.89 1305.54 4601.75 1271.71C4548.48 1244.05 4501.93 1205.32 4465.12 1158.29C4451.5 1140.88 4426.89 1135.28 4408.25 1147.18V1147.18Z" fill="#E81504"/>
<path d="M5122.14 922.788C5138.37 924.284 5152.85 912.336 5153.04 896.046C5153.68 841.707 5142.24 787.774 5119.41 738.191C5092.45 679.655 5050.57 629.244 4997.96 592.022C4945.35 554.8 4883.87 532.079 4819.7 526.141C4755.53 520.203 4690.93 531.258 4632.39 558.194C4573.84 585.131 4523.42 627 4486.18 679.596C4448.94 732.192 4426.2 793.662 4420.25 857.83C4414.29 921.998 4425.32 986.604 4452.24 1045.16C4475.04 1094.75 4508.56 1138.53 4550.24 1173.4C4562.73 1183.85 4581.23 1180.62 4590.65 1167.33V1167.33C4600.07 1154.04 4596.82 1135.73 4584.48 1125.08C4551.18 1096.33 4524.32 1060.7 4505.84 1020.51C4483.25 971.368 4473.99 917.142 4478.99 863.284C4483.99 809.426 4503.08 757.832 4534.33 713.687C4565.59 669.541 4607.91 634.399 4657.05 611.79C4706.19 589.181 4760.41 579.903 4814.27 584.887C4868.13 589.871 4919.73 608.941 4963.88 640.183C5008.04 671.424 5043.19 713.736 5065.82 762.867C5084.32 803.042 5093.9 846.619 5094.07 890.621C5094.13 906.912 5105.92 921.292 5122.14 922.788V922.788Z" fill="#E81504"/>
<path d="M4572.52 750.933C4563.07 744.139 4549.83 746.25 4543.81 756.212C4523.75 789.442 4511.27 826.791 4507.37 865.587C4502.78 911.389 4510.32 957.593 4529.23 999.558C4548.15 1041.52 4577.78 1077.77 4615.14 1104.66C4652.5 1131.55 4696.28 1148.13 4742.08 1152.74C4787.88 1157.35 4834.09 1149.82 4876.06 1130.92C4918.03 1112.01 4954.29 1082.4 4981.19 1045.04C5008.09 1007.69 5024.68 963.916 5029.3 918.118C5033.22 879.324 5028.43 840.236 5015.39 803.675C5011.48 792.714 4998.92 788.005 4988.31 792.781V792.781C4977.7 797.556 4973.07 810.007 4976.81 821.026C4986.91 850.789 4990.55 882.452 4987.38 913.885C4983.5 952.325 4969.57 989.067 4946.99 1020.42C4924.41 1051.77 4893.98 1076.63 4858.75 1092.5C4823.53 1108.36 4784.74 1114.68 4746.3 1110.81C4707.86 1106.94 4671.11 1093.02 4639.76 1070.45C4608.4 1047.89 4583.53 1017.46 4567.65 982.24C4551.77 947.018 4545.45 908.237 4549.3 869.794C4552.46 838.36 4562.33 808.057 4578.16 780.904C4584.02 770.85 4581.97 757.727 4572.52 750.933V750.933Z" fill="#E81504"/>
<path d="M4831.29 1030.75C4834.34 1038.75 4843.36 1042.81 4851.05 1039.02C4875.2 1027.09 4896.45 1009.69 4913.24 987.995C4933.26 962.13 4946.24 931.065 4950.87 897.922C4955.5 864.779 4951.62 830.725 4939.62 799.181C4927.62 767.637 4907.92 739.715 4882.5 718.219C4857.09 696.723 4826.85 682.412 4794.83 676.722C4762.8 671.032 4730.12 674.164 4700.07 685.804C4670.01 697.444 4643.65 717.181 4623.61 743.033C4606.45 765.178 4594.45 791.142 4588.44 818.964C4586.75 826.787 4592.17 834.191 4600.05 835.593V835.593C4608.35 837.071 4616.16 831.338 4618.11 823.136C4623.37 801.037 4633.15 780.424 4646.87 762.719C4663.69 741.02 4685.82 724.454 4711.05 714.685C4736.27 704.915 4763.7 702.286 4790.58 707.062C4817.46 711.837 4842.84 723.85 4864.17 741.892C4885.5 759.934 4902.03 783.37 4912.11 809.846C4922.18 836.322 4925.43 864.904 4921.55 892.723C4917.66 920.541 4906.77 946.614 4889.97 968.324C4876.35 985.917 4859.24 1000.14 4839.82 1010.11C4832.27 1013.99 4828.27 1022.81 4831.29 1030.75V1030.75Z" fill="#E81504"/>
<path d="M4677.35 774.599C4672.96 770.212 4665.8 770.184 4661.83 774.955C4649.57 789.701 4640.84 807.209 4636.31 826.268C4630.9 849.043 4631.68 873.231 4638.58 896.401C4645.48 919.571 4658.25 940.908 4675.61 958.268C4692.97 975.628 4714.3 988.399 4737.47 995.298C4760.64 1002.2 4784.83 1002.98 4807.61 997.574C4830.39 992.165 4850.95 980.754 4867.23 964.485C4883.51 948.217 4894.93 927.665 4900.36 904.895C4905.02 885.315 4905.11 864.687 4900.67 844.557C4899.44 839.014 4893.81 835.788 4888.29 837.098V837.098C4882.31 838.516 4878.8 844.663 4879.98 850.692C4883.12 866.707 4882.85 883.033 4879.15 898.572C4874.6 917.684 4865 934.934 4851.34 948.588C4837.67 962.243 4820.42 971.821 4801.3 976.361C4782.18 980.9 4761.88 980.242 4742.43 974.451C4722.99 968.66 4705.08 957.94 4690.51 943.37C4675.94 928.799 4665.22 910.89 4659.43 891.443C4653.64 871.995 4652.98 851.694 4657.52 832.578C4661.18 817.18 4668.11 802.987 4677.8 790.908C4681.69 786.067 4681.74 778.986 4677.35 774.599V774.599Z" fill="#E81504"/>
<path d="M4848.38 881.964C4852.24 882.335 4855.7 879.503 4855.76 875.625C4855.96 862.688 4853.29 849.836 4847.9 838.011C4841.53 824.05 4831.6 812.01 4819.11 803.101C4806.62 794.192 4792 788.727 4776.73 787.256C4761.45 785.785 4746.06 788.36 4732.1 794.721C4718.14 801.082 4706.09 811.006 4697.18 823.496C4688.27 835.986 4682.8 850.601 4681.32 865.874C4679.85 881.146 4682.42 896.538 4688.77 910.503C4694.16 922.332 4702.1 932.785 4711.99 941.124C4714.96 943.625 4719.37 942.872 4721.62 939.715V939.715C4723.87 936.559 4723.12 932.196 4720.19 929.651C4712.28 922.776 4705.92 914.268 4701.56 904.684C4696.22 892.962 4694.07 880.043 4695.3 867.225C4696.54 854.406 4701.13 842.139 4708.61 831.656C4716.1 821.173 4726.2 812.843 4737.92 807.504C4749.64 802.165 4762.56 800.004 4775.38 801.238C4788.2 802.473 4800.47 807.059 4810.95 814.537C4821.44 822.015 4829.77 832.12 4835.11 843.838C4839.48 853.42 4841.73 863.804 4841.73 874.281C4841.73 878.159 4844.52 881.594 4848.38 881.964V881.964Z" fill="#E81504"/>
<path d="M4726.46 841.646C4724.43 840.493 4721.84 841.19 4720.92 843.331C4718.48 849.075 4717.5 855.447 4718.07 862.021C4718.78 870.073 4721.79 878.146 4726.82 885.428C4731.84 892.711 4738.7 898.947 4746.69 903.51C4754.69 908.073 4763.54 910.802 4772.37 911.423C4781.2 912.044 4789.68 910.535 4796.98 907.048C4804.27 903.561 4810.11 898.218 4813.92 891.557C4817.72 884.895 4819.36 877.15 4818.66 869.099C4818.04 862 4815.62 854.884 4811.62 848.306C4810.69 846.771 4808.73 846.259 4807.11 847.033V847.033C4805.08 848.002 4804.41 850.551 4805.51 852.512C4808.37 857.625 4810.1 863.083 4810.58 868.528C4811.16 875.285 4809.79 881.787 4806.6 887.378C4803.4 892.969 4798.5 897.453 4792.38 900.38C4786.26 903.307 4779.13 904.573 4771.73 904.052C4764.32 903.531 4756.89 901.24 4750.17 897.41C4743.46 893.581 4737.71 888.346 4733.49 882.234C4729.28 876.121 4726.74 869.345 4726.15 862.587C4725.69 857.307 4726.42 852.182 4728.29 847.526C4729.15 845.365 4728.48 842.799 4726.46 841.646V841.646Z" fill="#E81504"/>
</svg>
